<!--Created with Inkscape (http://www.inkscape.org/)--><svg xmlns="http://www.w3.org/2000/svg" xmlns:cc="http://creativecommons.org/ns#" xmlns:dc="http://purl.org/dc/elements/1.1/" xmlns:inkscape="http://www.inkscape.org/namespaces/inkscape" xmlns:rdf="http://www.w3.org/1999/02/22-rdf-syntax-ns#" xmlns:sodipodi="http://sodipodi.sourceforge.net/DTD/sodipodi-0.dtd" inkscape:version="0.91 r13725" sodipodi:docname="AD.svg" width="224.225" height="312.808"><sodipodi:namedview inkscape:current-layer="layer1" inkscape:cx="120.579" inkscape:cy="56.115" inkscape:document-units="px" inkscape:pageopacity="0" inkscape:pageshadow="2" inkscape:snap-bbox="true" inkscape:snap-global="true" inkscape:snap-page="true" inkscape:window-height="800" inkscape:window-maximized="0" inkscape:window-width="1162" inkscape:window-x="534" inkscape:window-y="45" inkscape:zoom=".7" bordercolor="#666666" borderopacity="1" fit-margin-bottom="0" fit-margin-left="0" fit-margin-right="0" fit-margin-top="0" pagecolor="#ffffff" showgrid="false"/><metadata><rdf:RDF><cc:Work><dc:format>image/svg+xml</dc:format><dc:type rdf:resource="http://purl.org/dc/dcmitype/StillImage"/><dc:title/></cc:Work></rdf:RDF></metadata><g inkscape:groupmode="layer" inkscape:label="AS" transform="translate(-259.93472,-369.7772)"><g style="display:inline" transform="translate(-5774.2676,3117.0866)"><rect width="223.228" height="311.811" x="6034.701" y="-2746.811" rx="10.63" ry="10.63" style="display:inline;fill:#fff;fill-opacity:1;stroke:#000;stroke-width:.99673343;stroke-miterlimit:4;stroke-dasharray:none;stroke-opacity:1"/><g style="fill:#d40000;fill-opacity:1" transform="matrix(0.30106207,0,0,0.30106207,5730.6419,-1948.1116)"><path inkscape:connector-curvature="0" sodipodi:nodetypes="ccccc" d="M1306.38-2134.652c32.953-32.158 54.594-67.22 75.291-100.94 18.15 37.103 44.197 69.562 72.365 100.94-30.138 31.118-53.495 64.393-72.275 99.374-20.818-35.859-42.735-68.33-75.38-99.374" style="fill:#d40000;fill-opacity:1"/><path inkscape:connector-curvature="0" sodipodi:nodetypes="ccccc" d="M1661.742-1825.741c13.499-13.174 22.364-27.537 30.842-41.35 7.435 15.2 18.105 28.496 29.644 41.35-12.346 12.747-21.914 26.378-29.607 40.707-8.528-14.689-17.506-27.99-30.88-40.708" style="fill:#d40000;fill-opacity:1"/><path inkscape:connector-curvature="0" sodipodi:nodetypes="ccccc" d="M1036.024-2442.515c13.499-13.173 22.364-27.536 30.842-41.349 7.435 15.199 18.105 28.495 29.644 41.35-12.346 12.747-21.914 26.377-29.607 40.707-8.528-14.69-17.506-27.991-30.879-40.708" style="fill:#d40000;fill-opacity:1"/><path inkscape:connector-curvature="0" sodipodi:nodetypes="ccccccccccccccccccccc" d="M1033.986-2499.928v-9.092h8.839l18.814-97.227h10.705l20.736 97.227h7.134v9.092h-24.307v-9.092h6.566l-2.616-14.9h-24.531l-1.894 14.9h6.566v9.092zm43.772-34.598-10.657-52.05-9.987 52.05z" style="display:inline;fill:#d40000;fill-opacity:1"/><path inkscape:connector-curvature="0" sodipodi:nodetypes="ccccccccccccccccccccc" d="M1727.39-1770.247v9.091h-8.838l-18.814 97.227h-10.705l-20.736-97.227h-7.134v-9.091h24.307v9.091h-6.566l2.616 14.9h24.531l1.894-14.9h-6.566v-9.091zm-43.771 34.598 10.657 52.05 9.987-52.05z" style="display:inline;fill:#d40000;fill-opacity:1"/></g></g></g></svg>