<!--Created with Inkscape (http://www.inkscape.org/)--><svg xmlns="http://www.w3.org/2000/svg" xmlns:cc="http://creativecommons.org/ns#" xmlns:dc="http://purl.org/dc/elements/1.1/" xmlns:inkscape="http://www.inkscape.org/namespaces/inkscape" xmlns:rdf="http://www.w3.org/1999/02/22-rdf-syntax-ns#" xmlns:sodipodi="http://sodipodi.sourceforge.net/DTD/sodipodi-0.dtd" inkscape:version="0.91 r13725" sodipodi:docname="AS.svg" width="224.225" height="312.808" style="display:inline"><sodipodi:namedview inkscape:current-layer="layer1" inkscape:cx="-10.206" inkscape:cy="127.451" inkscape:document-units="px" inkscape:pageopacity="0" inkscape:pageshadow="2" inkscape:snap-bbox="true" inkscape:snap-global="true" inkscape:snap-page="true" inkscape:window-height="800" inkscape:window-maximized="0" inkscape:window-width="735" inkscape:window-x="524" inkscape:window-y="60" inkscape:zoom=".99" bordercolor="#666666" borderopacity="1" fit-margin-bottom="0" fit-margin-left="0" fit-margin-right="0" fit-margin-top="0" pagecolor="#ffffff" showgrid="false"/><metadata><rdf:RDF><cc:Work><dc:format>image/svg+xml</dc:format><dc:type rdf:resource="http://purl.org/dc/dcmitype/StillImage"/><dc:title/></cc:Work></rdf:RDF></metadata><g inkscape:groupmode="layer" inkscape:label="Layer 1" style="display:inline" transform="translate(-259.9347,-369.77721)"><g style="display:inline" transform="translate(-712.31835,92.135109)"><g><g transform="translate(-0.99666558,0)"><g style="display:inline" transform="translate(-5060.9526,3024.9515)"><rect width="223.228" height="311.811" x="6034.701" y="-2746.811" rx="10.63" ry="10.63" style="display:inline;fill:#fff;fill-opacity:1;stroke:#000;stroke-width:.99673343;stroke-miterlimit:4;stroke-dasharray:none;stroke-opacity:1"/><g transform="matrix(0.30106207,0,0,0.30106207,5730.6419,-1948.1116)"><path inkscape:connector-curvature="0" sodipodi:nodetypes="ccccccccccccccccccccc" d="M1033.986-2499.928v-9.092h8.839l18.814-97.227h10.705l20.736 97.227h7.134v9.092h-24.307v-9.092h6.566l-2.616-14.9h-24.531l-1.894 14.9h6.566v9.092zm43.772-34.598-10.657-52.05-9.987 52.05z" style="display:inline;fill:#000;fill-opacity:1"/><path inkscape:connector-curvature="0" sodipodi:nodetypes="ccccccccccccccccccccc" d="M1727.39-1770.247v9.091h-8.838l-18.814 97.227h-10.705l-20.736-97.227h-7.134v-9.091h24.307v9.091h-6.566l2.616 14.9h24.531l1.894-14.9h-6.566v-9.091zm-43.771 34.598 10.657 52.05 9.987-52.05z" style="display:inline;fill:#000;fill-opacity:1"/></g></g></g><path inkscape:connector-curvature="0" sodipodi:nodetypes="ccsscsccccc" d="M1083.077 445.392c.015-2.026-1.587-2.064-1.569-.586-.134 7.429-6.416 11.087-10.98 10.22-7.036-1.339-9.282-8.323-9.215-12.436.207-12.697 12.988-22.059 24.52-38.335 8.45 14.69 22.398 26.23 23.223 37.586 1.098 15.098-18.009 20.73-20.737 3.133-.176-1.243-1.64-1.802-1.526-.065.415 4.822-.175 6.83 5.266 18.719h-14.222c3.15-5.555 5.026-12.375 5.24-18.236" style="display:inline;fill:#000;fill-opacity:1"/><path inkscape:connector-curvature="0" sodipodi:nodetypes="ccscccscsccccc" d="M990.275 347.95c.01-.87-.896-.464-1.018-.19-1.163 1.986-2.865 2.448-4.548 1.732-1.667-.709-2.604-2.28-2.454-4.522.31-3.438 3.036-7.2 4.355-9.326a69 69 0 0 0 4.077-7.154c1.697 3.363 2.558 4.32 4.405 7.391 1.626 2.705 3.892 5.353 4.067 8.623 0 2.485-1.046 4.831-3.399 5.26-1.331.241-2.579-.443-3.504-2.038-.282-.406-.848-.194-.839.362.165 2.093.955 3.983 2.83 6.212h-6.888c1.41-1.576 2.85-3.704 2.916-6.35" style="display:inline;fill:#000;fill-opacity:1"/><path inkscape:connector-curvature="0" sodipodi:nodetypes="ccscccscsccccc" d="M1178.655 520.526c.01.871-.896.465-1.018.19-1.163-1.985-2.865-2.447-4.548-1.732-1.667.71-2.604 2.28-2.454 4.523.31 3.437 3.035 7.2 4.355 9.326a69 69 0 0 1 4.077 7.154c1.697-3.363 2.558-4.32 4.405-7.392 1.626-2.704 3.892-5.353 4.067-8.622 0-2.485-1.046-4.832-3.4-5.26-1.33-.241-2.578.442-3.503 2.037-.282.407-.849.195-.84-.361.166-2.094.956-3.984 2.83-6.212h-6.887c1.41 1.576 2.849 3.704 2.916 6.349" style="display:inline;fill:#000;fill-opacity:1"/></g></g></g></svg>